<svg xmlns="http://www.w3.org/2000/svg" viewBox="0 0 64 64"><title>file_type_uxntal_light</title><path d="M 34.5 5.5l -9.5 3.5v 0.5h 4.5v 19.5c 0 2 -3 2.5 -4 2.5v 1c 1 0 4 0.5 4 2.5v 15.5c 0 1 -3.5 5 -7.5 5 -4 0 -4 -5 -4 -5v -15.5c 0 -2 3 -2.5 4 -2.5v -0.5h -13v 0.5c 1 0 4 0.5 4 2.5v 15.5c 0 4 2 8 7 8 5 0 9.5 -5.5 9.5 -5.5v 5.5l 9.5 -3.5v -0.5h -4.5v -19.5c 0 -2 3 -2.5 4 -2.5v -1c -1 0 -4 -0.5 -4 -2.5v -15.5c 0 -1 3.5 -5 7.5 -5 4 0 4 5 4 5v 15.5c 0 2 -3 2.5 -4 2.5v 0.5h 13v -0.5c -1 0 -4 -0.5 -4 -2.5v -15.5c 0 -4 -2 -8 -7 -8 -5 0 -9.5 5.5 -9.5 5.5z" style="fill:#000000"/></svg>