<svg xmlns="http://www.w3.org/2000/svg" viewBox="0 0 32 32"><title>uxntal_file_icon_light</title><path d="M 17.25,2.75 12.5,4.5 v 0.25 h 2.25 v 9.75 c 0,0.999999 -1.500001,1.25 -2,1.25 0,0 -0.0054,0.478059 0,0.5 0.499999,0 2,0.250001 2,1.25 v 7.75 c 0,0.5 -1.750002,2.5 -3.75,2.5 -1.999998,0 -2,-2.5 -2,-2.5 V 17.5 c 0,-0.999999 1.500001,-1.25 2,-1.25 V 16 H 4.5 v 0.25 c 0.4999995,0 2,0.250001 2,1.25 v 7.75 c 0,1.999998 1.0000022,4 3.5,4 2.499997,0 4.75,-2.75 4.75,-2.75 v 2.75 L 19.5,27.5 V 27.25 H 17.25 V 17.5 c 0,-0.999999 1.5,-1.25 2,-1.25 v -0.5 c -0.5,0 -2,-0.250001 -2,-1.25 V 6.75 c 0,-0.4999995 1.750002,-2.5 3.75,-2.5 1.999998,0 2,2.5 2,2.5 v 7.75 c 0,0.999999 -1.5,1.25 -2,1.25 V 16 h 6.5 v -0.25 c -0.5,0 -2,-0.250001 -2,-1.25 V 6.75 c 0,-1.999998 -1.000003,-4 -3.5,-4 -2.499997,0 -4.75,2.75 -4.75,2.75 z" style="fill:#000000"/></svg>