<svg xmlns="http://www.w3.org/2000/svg" viewBox="0 0 32 32"><title>file_type_uxntal_light</title><path d="M 17.25,3 12.5,4.75 V 5 h 2.25 v 9.75 c 0,0.999999 -1.500001,1.25 -2,1.25 0,0 -0.0054,0.478059 0,0.5 0.499999,0 2,0.250001 2,1.25 V 25.5 C 14.75,26 12.999998,28 11,28 9.000002,28 9,25.5 9,25.5 V 17.75 C 9,16.750001 10.500001,16.5 11,16.5 V 16.25 H 4.5 v 0.25 c 0.4999995,0 2,0.250001 2,1.25 v 7.75 c 0,1.999998 1.0000022,4 3.5,4 2.499997,0 4.75,-2.75 4.75,-2.75 V 29.5 L 19.5,27.75 V 27.5 h -2.25 v -9.75 c 0,-0.999999 1.5,-1.25 2,-1.25 V 16 c -0.5,0 -2,-0.250001 -2,-1.25 V 7 c 0,-0.4999995 1.750002,-2.5 3.75,-2.5 1.999998,0 2,2.5 2,2.5 v 7.75 C 23,15.749999 21.5,16 21,16 v 0.25 h 6.5 V 16 c -0.5,0 -2,-0.250001 -2,-1.25 V 7 C 25.5,5.000002 24.499997,3 22,3 19.500003,3 17.25,5.75 17.25,5.75 Z" style="fill:#000000"/></svg>